<mxfile host="Electron" agent="Mozilla/5.0 (Windows NT 10.0; Win64; x64) AppleWebKit/537.36 (KHTML, like Gecko) draw.io/24.7.5 Chrome/126.0.6478.183 Electron/31.3.0 Safari/537.36" version="24.7.5" pages="3">
  <diagram name="Page-1" id="JUNGyigB4gi4Dt59CXMW">
    <mxGraphModel dx="1834" dy="1236" grid="0" gridSize="8" guides="1" tooltips="1" connect="1" arrows="1" fold="1" page="0" pageScale="1" pageWidth="850" pageHeight="1100" math="0" shadow="0">
      <root>
        <mxCell id="0" />
        <mxCell id="1" parent="0" />
        <mxCell id="eu--h0vcrsf78tEiwZPu-5" value="&lt;font style=&quot;font-size: 16px;&quot;&gt;Dummy master&lt;/font&gt;" style="rounded=0;whiteSpace=wrap;html=1;strokeWidth=2;" vertex="1" parent="1">
          <mxGeometry x="40" y="140" width="120" height="60" as="geometry" />
        </mxCell>
        <mxCell id="eu--h0vcrsf78tEiwZPu-6" value="&lt;font style=&quot;font-size: 16px;&quot;&gt;Dummy slave&lt;/font&gt;" style="rounded=0;whiteSpace=wrap;html=1;strokeWidth=2;" vertex="1" parent="1">
          <mxGeometry x="240" y="140" width="120" height="60" as="geometry" />
        </mxCell>
        <mxCell id="eu--h0vcrsf78tEiwZPu-7" value="&lt;font style=&quot;font-size: 16px;&quot;&gt;External ram&lt;/font&gt;" style="rounded=0;whiteSpace=wrap;html=1;strokeWidth=2;" vertex="1" parent="1">
          <mxGeometry x="40" y="440" width="120" height="60" as="geometry" />
        </mxCell>
        <mxCell id="eu--h0vcrsf78tEiwZPu-8" value="&lt;font style=&quot;font-size: 16px;&quot;&gt;Adder wrapper&lt;/font&gt;" style="rounded=0;whiteSpace=wrap;html=1;strokeWidth=2;" vertex="1" parent="1">
          <mxGeometry x="240" y="440" width="120" height="60" as="geometry" />
        </mxCell>
        <mxCell id="eu--h0vcrsf78tEiwZPu-9" value="&lt;font style=&quot;font-size: 16px;&quot;&gt;Counter wrapper&lt;/font&gt;" style="rounded=0;whiteSpace=wrap;html=1;strokeWidth=2;" vertex="1" parent="1">
          <mxGeometry x="460" y="140" width="120" height="60" as="geometry" />
        </mxCell>
        <mxCell id="eu--h0vcrsf78tEiwZPu-10" value="" style="shape=flexArrow;endArrow=classic;startArrow=classic;html=1;rounded=0;entryX=0.5;entryY=1;entryDx=0;entryDy=0;strokeWidth=2;" edge="1" parent="1" target="eu--h0vcrsf78tEiwZPu-5">
          <mxGeometry width="100" height="100" relative="1" as="geometry">
            <mxPoint x="100" y="300" as="sourcePoint" />
            <mxPoint x="240" y="60" as="targetPoint" />
          </mxGeometry>
        </mxCell>
        <mxCell id="eu--h0vcrsf78tEiwZPu-11" value="" style="shape=flexArrow;endArrow=classic;startArrow=classic;html=1;rounded=0;entryX=0.5;entryY=1;entryDx=0;entryDy=0;strokeWidth=2;" edge="1" parent="1">
          <mxGeometry width="100" height="100" relative="1" as="geometry">
            <mxPoint x="299.65999999999997" y="300" as="sourcePoint" />
            <mxPoint x="299.65999999999997" y="200" as="targetPoint" />
          </mxGeometry>
        </mxCell>
        <mxCell id="eu--h0vcrsf78tEiwZPu-12" value="" style="shape=flexArrow;endArrow=classic;startArrow=classic;html=1;rounded=0;entryX=0.5;entryY=1;entryDx=0;entryDy=0;strokeWidth=2;" edge="1" parent="1">
          <mxGeometry width="100" height="100" relative="1" as="geometry">
            <mxPoint x="99.66" y="440" as="sourcePoint" />
            <mxPoint x="99.66" y="340" as="targetPoint" />
          </mxGeometry>
        </mxCell>
        <mxCell id="eu--h0vcrsf78tEiwZPu-13" value="" style="shape=flexArrow;endArrow=classic;startArrow=classic;html=1;rounded=0;entryX=0.5;entryY=1;entryDx=0;entryDy=0;strokeWidth=2;" edge="1" parent="1">
          <mxGeometry width="100" height="100" relative="1" as="geometry">
            <mxPoint x="299.65999999999997" y="440" as="sourcePoint" />
            <mxPoint x="299.65999999999997" y="340" as="targetPoint" />
          </mxGeometry>
        </mxCell>
        <mxCell id="eu--h0vcrsf78tEiwZPu-15" style="edgeStyle=orthogonalEdgeStyle;rounded=0;orthogonalLoop=1;jettySize=auto;html=1;entryX=0.25;entryY=1;entryDx=0;entryDy=0;" edge="1" parent="1" source="eu--h0vcrsf78tEiwZPu-14" target="eu--h0vcrsf78tEiwZPu-8">
          <mxGeometry relative="1" as="geometry">
            <Array as="points">
              <mxPoint x="270" y="550" />
              <mxPoint x="270" y="550" />
            </Array>
          </mxGeometry>
        </mxCell>
        <mxCell id="eu--h0vcrsf78tEiwZPu-16" style="edgeStyle=orthogonalEdgeStyle;rounded=0;orthogonalLoop=1;jettySize=auto;html=1;" edge="1" parent="1" source="eu--h0vcrsf78tEiwZPu-14">
          <mxGeometry relative="1" as="geometry">
            <mxPoint x="290" y="500" as="targetPoint" />
            <Array as="points">
              <mxPoint x="290" y="500" />
            </Array>
          </mxGeometry>
        </mxCell>
        <mxCell id="eu--h0vcrsf78tEiwZPu-14" value="&lt;font style=&quot;font-size: 16px;&quot;&gt;Adder&amp;nbsp;&lt;/font&gt;" style="rounded=0;whiteSpace=wrap;html=1;strokeWidth=2;" vertex="1" parent="1">
          <mxGeometry x="240" y="560" width="120" height="60" as="geometry" />
        </mxCell>
        <mxCell id="eu--h0vcrsf78tEiwZPu-17" style="edgeStyle=orthogonalEdgeStyle;rounded=0;orthogonalLoop=1;jettySize=auto;html=1;entryX=0.591;entryY=1.005;entryDx=0;entryDy=0;entryPerimeter=0;startArrow=classic;startFill=1;endArrow=none;endFill=0;" edge="1" parent="1" source="eu--h0vcrsf78tEiwZPu-14" target="eu--h0vcrsf78tEiwZPu-8">
          <mxGeometry relative="1" as="geometry">
            <Array as="points">
              <mxPoint x="311" y="510" />
              <mxPoint x="311" y="510" />
            </Array>
          </mxGeometry>
        </mxCell>
        <mxCell id="eu--h0vcrsf78tEiwZPu-18" style="edgeStyle=orthogonalEdgeStyle;rounded=0;orthogonalLoop=1;jettySize=auto;html=1;entryX=0.591;entryY=1.005;entryDx=0;entryDy=0;entryPerimeter=0;startArrow=classic;startFill=1;endArrow=none;endFill=0;" edge="1" parent="1">
          <mxGeometry relative="1" as="geometry">
            <mxPoint x="330" y="560" as="sourcePoint" />
            <mxPoint x="330" y="500" as="targetPoint" />
            <Array as="points">
              <mxPoint x="330" y="510" />
              <mxPoint x="330" y="510" />
            </Array>
          </mxGeometry>
        </mxCell>
        <mxCell id="eu--h0vcrsf78tEiwZPu-20" style="edgeStyle=orthogonalEdgeStyle;rounded=0;orthogonalLoop=1;jettySize=auto;html=1;startArrow=classic;startFill=1;endArrow=none;endFill=0;" edge="1" parent="1" source="eu--h0vcrsf78tEiwZPu-19" target="eu--h0vcrsf78tEiwZPu-9">
          <mxGeometry relative="1" as="geometry" />
        </mxCell>
        <mxCell id="eu--h0vcrsf78tEiwZPu-19" value="&lt;font style=&quot;font-size: 16px;&quot;&gt;Counter wrapper&lt;/font&gt;" style="rounded=0;whiteSpace=wrap;html=1;strokeWidth=2;" vertex="1" parent="1">
          <mxGeometry x="460" y="10" width="120" height="60" as="geometry" />
        </mxCell>
        <mxCell id="eu--h0vcrsf78tEiwZPu-21" style="edgeStyle=orthogonalEdgeStyle;rounded=0;orthogonalLoop=1;jettySize=auto;html=1;startArrow=classic;startFill=1;endArrow=none;endFill=0;" edge="1" parent="1">
          <mxGeometry relative="1" as="geometry">
            <mxPoint x="550" y="70" as="sourcePoint" />
            <mxPoint x="550" y="140" as="targetPoint" />
          </mxGeometry>
        </mxCell>
        <mxCell id="eu--h0vcrsf78tEiwZPu-23" style="edgeStyle=orthogonalEdgeStyle;rounded=0;orthogonalLoop=1;jettySize=auto;html=1;startArrow=none;startFill=0;endArrow=classic;endFill=1;" edge="1" parent="1">
          <mxGeometry relative="1" as="geometry">
            <mxPoint x="480" y="70" as="sourcePoint" />
            <mxPoint x="480" y="140" as="targetPoint" />
          </mxGeometry>
        </mxCell>
        <mxCell id="eu--h0vcrsf78tEiwZPu-24" value="" style="endArrow=none;html=1;rounded=0;" edge="1" parent="1">
          <mxGeometry width="50" height="50" relative="1" as="geometry">
            <mxPoint x="472" y="104" as="sourcePoint" />
            <mxPoint x="488" y="88" as="targetPoint" />
          </mxGeometry>
        </mxCell>
        <mxCell id="eu--h0vcrsf78tEiwZPu-25" value="" style="endArrow=none;html=1;rounded=0;" edge="1" parent="1">
          <mxGeometry width="50" height="50" relative="1" as="geometry">
            <mxPoint x="472" y="112" as="sourcePoint" />
            <mxPoint x="488" y="96" as="targetPoint" />
          </mxGeometry>
        </mxCell>
        <mxCell id="eu--h0vcrsf78tEiwZPu-26" value="" style="shape=flexArrow;endArrow=classic;startArrow=classic;html=1;rounded=0;entryX=0.5;entryY=1;entryDx=0;entryDy=0;strokeWidth=2;" edge="1" parent="1">
          <mxGeometry width="100" height="100" relative="1" as="geometry">
            <mxPoint x="528" y="300" as="sourcePoint" />
            <mxPoint x="528" y="200" as="targetPoint" />
          </mxGeometry>
        </mxCell>
        <mxCell id="eu--h0vcrsf78tEiwZPu-28" style="edgeStyle=orthogonalEdgeStyle;rounded=0;orthogonalLoop=1;jettySize=auto;html=1;entryX=0;entryY=0.5;entryDx=0;entryDy=0;strokeWidth=2;" edge="1" parent="1" source="eu--h0vcrsf78tEiwZPu-27" target="eu--h0vcrsf78tEiwZPu-5">
          <mxGeometry relative="1" as="geometry">
            <Array as="points">
              <mxPoint x="-172" y="170" />
            </Array>
          </mxGeometry>
        </mxCell>
        <mxCell id="eu--h0vcrsf78tEiwZPu-29" style="edgeStyle=orthogonalEdgeStyle;rounded=0;orthogonalLoop=1;jettySize=auto;html=1;entryX=0.5;entryY=0;entryDx=0;entryDy=0;strokeWidth=2;" edge="1" parent="1" source="eu--h0vcrsf78tEiwZPu-27" target="eu--h0vcrsf78tEiwZPu-6">
          <mxGeometry relative="1" as="geometry">
            <Array as="points">
              <mxPoint x="-172" y="120" />
              <mxPoint x="300" y="120" />
            </Array>
          </mxGeometry>
        </mxCell>
        <mxCell id="eu--h0vcrsf78tEiwZPu-30" style="edgeStyle=orthogonalEdgeStyle;rounded=0;orthogonalLoop=1;jettySize=auto;html=1;strokeWidth=2;" edge="1" parent="1" source="eu--h0vcrsf78tEiwZPu-27">
          <mxGeometry relative="1" as="geometry">
            <mxPoint x="460" y="152" as="targetPoint" />
            <Array as="points">
              <mxPoint x="-172" y="120" />
              <mxPoint x="416" y="120" />
              <mxPoint x="416" y="152" />
              <mxPoint x="460" y="152" />
            </Array>
          </mxGeometry>
        </mxCell>
        <mxCell id="eu--h0vcrsf78tEiwZPu-31" style="edgeStyle=orthogonalEdgeStyle;rounded=0;orthogonalLoop=1;jettySize=auto;html=1;entryX=0;entryY=0.5;entryDx=0;entryDy=0;strokeWidth=2;" edge="1" parent="1" source="eu--h0vcrsf78tEiwZPu-27" target="eu--h0vcrsf78tEiwZPu-8">
          <mxGeometry relative="1" as="geometry">
            <Array as="points">
              <mxPoint x="-172" y="560" />
              <mxPoint x="192" y="560" />
              <mxPoint x="192" y="470" />
            </Array>
          </mxGeometry>
        </mxCell>
        <mxCell id="eu--h0vcrsf78tEiwZPu-32" style="edgeStyle=orthogonalEdgeStyle;rounded=0;orthogonalLoop=1;jettySize=auto;html=1;strokeWidth=2;" edge="1" parent="1" source="eu--h0vcrsf78tEiwZPu-27">
          <mxGeometry relative="1" as="geometry">
            <mxPoint x="-8" y="318" as="targetPoint" />
          </mxGeometry>
        </mxCell>
        <mxCell id="eu--h0vcrsf78tEiwZPu-27" value="&lt;span style=&quot;font-size: 16px;&quot;&gt;System Clock&lt;/span&gt;" style="rounded=0;whiteSpace=wrap;html=1;strokeWidth=2;" vertex="1" parent="1">
          <mxGeometry x="-232" y="288" width="120" height="60" as="geometry" />
        </mxCell>
        <mxCell id="eu--h0vcrsf78tEiwZPu-33" value="User will control read/write registers by dummy master" style="shape=callout;whiteSpace=wrap;html=1;perimeter=calloutPerimeter;strokeWidth=2;dashed=1;" vertex="1" parent="1">
          <mxGeometry x="32" y="-16" width="120" height="126" as="geometry" />
        </mxCell>
        <mxCell id="eu--h0vcrsf78tEiwZPu-36" value="" style="endArrow=classic;html=1;rounded=0;" edge="1" parent="1">
          <mxGeometry width="50" height="50" relative="1" as="geometry">
            <mxPoint x="392" y="144" as="sourcePoint" />
            <mxPoint x="360" y="144" as="targetPoint" />
          </mxGeometry>
        </mxCell>
        <mxCell id="eu--h0vcrsf78tEiwZPu-37" value="" style="endArrow=classic;html=1;rounded=0;" edge="1" parent="1">
          <mxGeometry width="50" height="50" relative="1" as="geometry">
            <mxPoint x="392" y="160" as="sourcePoint" />
            <mxPoint x="360" y="160" as="targetPoint" />
          </mxGeometry>
        </mxCell>
        <mxCell id="eu--h0vcrsf78tEiwZPu-38" value="" style="endArrow=classic;html=1;rounded=0;" edge="1" parent="1">
          <mxGeometry width="50" height="50" relative="1" as="geometry">
            <mxPoint x="392" y="176" as="sourcePoint" />
            <mxPoint x="360" y="176" as="targetPoint" />
          </mxGeometry>
        </mxCell>
        <mxCell id="eu--h0vcrsf78tEiwZPu-39" value="" style="endArrow=classic;html=1;rounded=0;" edge="1" parent="1">
          <mxGeometry width="50" height="50" relative="1" as="geometry">
            <mxPoint x="392" y="192" as="sourcePoint" />
            <mxPoint x="360" y="192" as="targetPoint" />
          </mxGeometry>
        </mxCell>
        <mxCell id="eu--h0vcrsf78tEiwZPu-40" value="interconnect ports" style="text;html=1;align=center;verticalAlign=middle;resizable=0;points=[];autosize=1;strokeColor=none;fillColor=none;" vertex="1" parent="1">
          <mxGeometry x="320" y="200" width="112" height="32" as="geometry" />
        </mxCell>
        <mxCell id="eu--h0vcrsf78tEiwZPu-41" value="..." style="text;html=1;align=center;verticalAlign=middle;resizable=0;points=[];autosize=1;strokeColor=none;fillColor=none;" vertex="1" parent="1">
          <mxGeometry x="388" y="140" width="32" height="32" as="geometry" />
        </mxCell>
        <mxCell id="eu--h0vcrsf78tEiwZPu-42" value="..." style="text;html=1;align=center;verticalAlign=middle;resizable=0;points=[];autosize=1;strokeColor=none;fillColor=none;" vertex="1" parent="1">
          <mxGeometry x="388" y="148" width="32" height="32" as="geometry" />
        </mxCell>
        <mxCell id="eu--h0vcrsf78tEiwZPu-43" value="..." style="text;html=1;align=center;verticalAlign=middle;resizable=0;points=[];autosize=1;strokeColor=none;fillColor=none;" vertex="1" parent="1">
          <mxGeometry x="388" y="160" width="32" height="32" as="geometry" />
        </mxCell>
        <mxCell id="eu--h0vcrsf78tEiwZPu-44" value="Dumping log to monitor when any ports change" style="shape=callout;whiteSpace=wrap;html=1;perimeter=calloutPerimeter;strokeWidth=2;dashed=1;" vertex="1" parent="1">
          <mxGeometry x="240" y="-16" width="120" height="128" as="geometry" />
        </mxCell>
        <mxCell id="eu--h0vcrsf78tEiwZPu-1" value="" style="shape=flexArrow;endArrow=classic;startArrow=classic;html=1;rounded=0;endWidth=37.93103448275862;endSize=7.6;startWidth=44.827586206896555;startSize=7;width=40;strokeWidth=2;" edge="1" parent="1">
          <mxGeometry width="100" height="100" relative="1" as="geometry">
            <mxPoint x="-10" y="320" as="sourcePoint" />
            <mxPoint x="640" y="320" as="targetPoint" />
            <Array as="points" />
          </mxGeometry>
        </mxCell>
        <mxCell id="eu--h0vcrsf78tEiwZPu-3" value="&lt;span style=&quot;font-size: 22px;&quot;&gt;BUS MMIO&lt;/span&gt;" style="edgeLabel;html=1;align=center;verticalAlign=middle;resizable=0;points=[];" vertex="1" connectable="0" parent="eu--h0vcrsf78tEiwZPu-1">
          <mxGeometry x="0.0301" y="1" relative="1" as="geometry">
            <mxPoint as="offset" />
          </mxGeometry>
        </mxCell>
      </root>
    </mxGraphModel>
  </diagram>
  <diagram id="jIekyvwjZotVPXiZo4Lj" name="Page-2">
    <mxGraphModel dx="1595" dy="697" grid="0" gridSize="8" guides="1" tooltips="1" connect="1" arrows="1" fold="1" page="0" pageScale="1" pageWidth="850" pageHeight="1100" math="0" shadow="0">
      <root>
        <mxCell id="0" />
        <mxCell id="1" parent="0" />
        <mxCell id="AP79YDHdzoa9NssZAHD8-1" value="&lt;br&gt;&lt;b&gt;Register&lt;/b&gt;&lt;div&gt;&lt;br&gt;&lt;/div&gt;" style="swimlane;fontStyle=0;align=center;verticalAlign=top;childLayout=stackLayout;horizontal=1;startSize=55;horizontalStack=0;resizeParent=1;resizeParentMax=0;resizeLast=0;collapsible=0;marginBottom=0;html=1;whiteSpace=wrap;" vertex="1" parent="1">
          <mxGeometry x="-141" y="130" width="304" height="479" as="geometry" />
        </mxCell>
        <mxCell id="AP79YDHdzoa9NssZAHD8-2" value="attributes" style="text;html=1;strokeColor=none;fillColor=none;align=center;verticalAlign=middle;spacingLeft=4;spacingRight=4;overflow=hidden;rotatable=0;points=[[0,0.5],[1,0.5]];portConstraint=eastwest;whiteSpace=wrap;" vertex="1" parent="AP79YDHdzoa9NssZAHD8-1">
          <mxGeometry y="55" width="304" height="20" as="geometry" />
        </mxCell>
        <mxCell id="AP79YDHdzoa9NssZAHD8-3" value="std::string name" style="text;html=1;strokeColor=none;fillColor=none;align=left;verticalAlign=middle;spacingLeft=4;spacingRight=4;overflow=hidden;rotatable=0;points=[[0,0.5],[1,0.5]];portConstraint=eastwest;whiteSpace=wrap;" vertex="1" parent="AP79YDHdzoa9NssZAHD8-1">
          <mxGeometry y="75" width="304" height="20" as="geometry" />
        </mxCell>
        <mxCell id="AP79YDHdzoa9NssZAHD8-4" value="&lt;font color=&quot;#000000&quot;&gt;uint64_t address&lt;/font&gt;" style="text;html=1;strokeColor=none;fillColor=none;align=left;verticalAlign=middle;spacingLeft=4;spacingRight=4;overflow=hidden;rotatable=0;points=[[0,0.5],[1,0.5]];portConstraint=eastwest;fontColor=#808080;whiteSpace=wrap;" vertex="1" parent="AP79YDHdzoa9NssZAHD8-1">
          <mxGeometry y="95" width="304" height="20" as="geometry" />
        </mxCell>
        <mxCell id="AP79YDHdzoa9NssZAHD8-5" value="uint32_t value" style="text;html=1;strokeColor=none;fillColor=none;align=left;verticalAlign=middle;spacingLeft=4;spacingRight=4;overflow=hidden;rotatable=0;points=[[0,0.5],[1,0.5]];portConstraint=eastwest;whiteSpace=wrap;" vertex="1" parent="AP79YDHdzoa9NssZAHD8-1">
          <mxGeometry y="115" width="304" height="21" as="geometry" />
        </mxCell>
        <mxCell id="AP79YDHdzoa9NssZAHD8-10" value="&lt;font color=&quot;#000000&quot;&gt;uint32_t mask&lt;/font&gt;" style="text;html=1;strokeColor=none;fillColor=none;align=left;verticalAlign=middle;spacingLeft=4;spacingRight=4;overflow=hidden;rotatable=0;points=[[0,0.5],[1,0.5]];portConstraint=eastwest;fontColor=#808080;whiteSpace=wrap;" vertex="1" parent="AP79YDHdzoa9NssZAHD8-1">
          <mxGeometry y="136" width="304" height="20" as="geometry" />
        </mxCell>
        <mxCell id="AP79YDHdzoa9NssZAHD8-11" value="&lt;font color=&quot;#000000&quot;&gt;const uint32_t ch&lt;/font&gt;" style="text;html=1;strokeColor=none;fillColor=none;align=left;verticalAlign=middle;spacingLeft=4;spacingRight=4;overflow=hidden;rotatable=0;points=[[0,0.5],[1,0.5]];portConstraint=eastwest;fontColor=#808080;whiteSpace=wrap;" vertex="1" parent="AP79YDHdzoa9NssZAHD8-1">
          <mxGeometry y="156" width="304" height="20" as="geometry" />
        </mxCell>
        <mxCell id="AP79YDHdzoa9NssZAHD8-12" value="&lt;font color=&quot;#000000&quot;&gt;const uint32_t init_val&lt;/font&gt;" style="text;html=1;strokeColor=none;fillColor=none;align=left;verticalAlign=middle;spacingLeft=4;spacingRight=4;overflow=hidden;rotatable=0;points=[[0,0.5],[1,0.5]];portConstraint=eastwest;fontColor=#808080;whiteSpace=wrap;" vertex="1" parent="AP79YDHdzoa9NssZAHD8-1">
          <mxGeometry y="176" width="304" height="20" as="geometry" />
        </mxCell>
        <mxCell id="AP79YDHdzoa9NssZAHD8-13" value="&lt;font color=&quot;#000000&quot;&gt;const REGPERMISSION permission&lt;/font&gt;" style="text;html=1;strokeColor=none;fillColor=none;align=left;verticalAlign=middle;spacingLeft=4;spacingRight=4;overflow=hidden;rotatable=0;points=[[0,0.5],[1,0.5]];portConstraint=eastwest;fontColor=#808080;whiteSpace=wrap;" vertex="1" parent="AP79YDHdzoa9NssZAHD8-1">
          <mxGeometry y="196" width="304" height="20" as="geometry" />
        </mxCell>
        <mxCell id="AP79YDHdzoa9NssZAHD8-14" value="&lt;font color=&quot;#000000&quot;&gt;Callback callback&lt;/font&gt;" style="text;html=1;strokeColor=none;fillColor=none;align=left;verticalAlign=middle;spacingLeft=4;spacingRight=4;overflow=hidden;rotatable=0;points=[[0,0.5],[1,0.5]];portConstraint=eastwest;fontColor=#808080;whiteSpace=wrap;" vertex="1" parent="AP79YDHdzoa9NssZAHD8-1">
          <mxGeometry y="216" width="304" height="20" as="geometry" />
        </mxCell>
        <mxCell id="AP79YDHdzoa9NssZAHD8-6" value="" style="line;strokeWidth=1;fillColor=none;align=left;verticalAlign=middle;spacingTop=-1;spacingLeft=3;spacingRight=3;rotatable=0;labelPosition=right;points=[];portConstraint=eastwest;" vertex="1" parent="AP79YDHdzoa9NssZAHD8-1">
          <mxGeometry y="236" width="304" height="8" as="geometry" />
        </mxCell>
        <mxCell id="AP79YDHdzoa9NssZAHD8-7" value="operations" style="text;html=1;strokeColor=none;fillColor=none;align=center;verticalAlign=middle;spacingLeft=4;spacingRight=4;overflow=hidden;rotatable=0;points=[[0,0.5],[1,0.5]];portConstraint=eastwest;whiteSpace=wrap;" vertex="1" parent="AP79YDHdzoa9NssZAHD8-1">
          <mxGeometry y="244" width="304" height="20" as="geometry" />
        </mxCell>
        <mxCell id="AP79YDHdzoa9NssZAHD8-56" value="Register(std::string name, uint64_t address, uint32_t init, uint32_t mask, uint32_t ch, REGPERMISSION permission)" style="text;html=1;strokeColor=none;fillColor=none;align=left;verticalAlign=middle;spacingLeft=4;spacingRight=4;overflow=hidden;rotatable=0;points=[[0,0.5],[1,0.5]];portConstraint=eastwest;whiteSpace=wrap;" vertex="1" parent="AP79YDHdzoa9NssZAHD8-1">
          <mxGeometry y="264" width="304" height="56" as="geometry" />
        </mxCell>
        <mxCell id="AP79YDHdzoa9NssZAHD8-8" value="uint32_t get_value()" style="text;html=1;strokeColor=none;fillColor=none;align=left;verticalAlign=middle;spacingLeft=4;spacingRight=4;overflow=hidden;rotatable=0;points=[[0,0.5],[1,0.5]];portConstraint=eastwest;whiteSpace=wrap;" vertex="1" parent="AP79YDHdzoa9NssZAHD8-1">
          <mxGeometry y="320" width="304" height="20" as="geometry" />
        </mxCell>
        <mxCell id="AP79YDHdzoa9NssZAHD8-30" value="void set_value(uint32_t new_value)" style="text;html=1;strokeColor=none;fillColor=none;align=left;verticalAlign=middle;spacingLeft=4;spacingRight=4;overflow=hidden;rotatable=0;points=[[0,0.5],[1,0.5]];portConstraint=eastwest;whiteSpace=wrap;" vertex="1" parent="AP79YDHdzoa9NssZAHD8-1">
          <mxGeometry y="340" width="304" height="39" as="geometry" />
        </mxCell>
        <mxCell id="AP79YDHdzoa9NssZAHD8-31" value="void set_readonly_value(uint32_t new_value)" style="text;html=1;strokeColor=none;fillColor=none;align=left;verticalAlign=middle;spacingLeft=4;spacingRight=4;overflow=hidden;rotatable=0;points=[[0,0.5],[1,0.5]];portConstraint=eastwest;whiteSpace=wrap;" vertex="1" parent="AP79YDHdzoa9NssZAHD8-1">
          <mxGeometry y="379" width="304" height="20" as="geometry" />
        </mxCell>
        <mxCell id="AP79YDHdzoa9NssZAHD8-32" value="void reset()" style="text;html=1;strokeColor=none;fillColor=none;align=left;verticalAlign=middle;spacingLeft=4;spacingRight=4;overflow=hidden;rotatable=0;points=[[0,0.5],[1,0.5]];portConstraint=eastwest;whiteSpace=wrap;" vertex="1" parent="AP79YDHdzoa9NssZAHD8-1">
          <mxGeometry y="399" width="304" height="20" as="geometry" />
        </mxCell>
        <mxCell id="AP79YDHdzoa9NssZAHD8-33" value="uint64_t get_address()" style="text;html=1;strokeColor=none;fillColor=none;align=left;verticalAlign=middle;spacingLeft=4;spacingRight=4;overflow=hidden;rotatable=0;points=[[0,0.5],[1,0.5]];portConstraint=eastwest;whiteSpace=wrap;" vertex="1" parent="AP79YDHdzoa9NssZAHD8-1">
          <mxGeometry y="419" width="304" height="20" as="geometry" />
        </mxCell>
        <mxCell id="AP79YDHdzoa9NssZAHD8-34" value="std::string get_name()" style="text;html=1;strokeColor=none;fillColor=none;align=left;verticalAlign=middle;spacingLeft=4;spacingRight=4;overflow=hidden;rotatable=0;points=[[0,0.5],[1,0.5]];portConstraint=eastwest;whiteSpace=wrap;" vertex="1" parent="AP79YDHdzoa9NssZAHD8-1">
          <mxGeometry y="439" width="304" height="20" as="geometry" />
        </mxCell>
        <mxCell id="AP79YDHdzoa9NssZAHD8-35" value="Register&amp;amp; operator=(uint32_t new_value)" style="text;html=1;strokeColor=none;fillColor=none;align=left;verticalAlign=middle;spacingLeft=4;spacingRight=4;overflow=hidden;rotatable=0;points=[[0,0.5],[1,0.5]];portConstraint=eastwest;whiteSpace=wrap;" vertex="1" parent="AP79YDHdzoa9NssZAHD8-1">
          <mxGeometry y="459" width="304" height="20" as="geometry" />
        </mxCell>
        <mxCell id="AP79YDHdzoa9NssZAHD8-36" value="&lt;br&gt;&lt;b&gt;RegisterIF&lt;/b&gt;&lt;div&gt;&lt;br&gt;&lt;/div&gt;" style="swimlane;fontStyle=0;align=center;verticalAlign=top;childLayout=stackLayout;horizontal=1;startSize=55;horizontalStack=0;resizeParent=1;resizeParentMax=0;resizeLast=0;collapsible=0;marginBottom=0;html=1;whiteSpace=wrap;" vertex="1" parent="1">
          <mxGeometry x="272" y="130" width="304" height="362" as="geometry" />
        </mxCell>
        <mxCell id="AP79YDHdzoa9NssZAHD8-37" value="attributes" style="text;html=1;strokeColor=none;fillColor=none;align=center;verticalAlign=middle;spacingLeft=4;spacingRight=4;overflow=hidden;rotatable=0;points=[[0,0.5],[1,0.5]];portConstraint=eastwest;whiteSpace=wrap;" vertex="1" parent="AP79YDHdzoa9NssZAHD8-36">
          <mxGeometry y="55" width="304" height="20" as="geometry" />
        </mxCell>
        <mxCell id="AP79YDHdzoa9NssZAHD8-38" value="std::map&amp;lt;std::string, Register&amp;gt; registers" style="text;html=1;strokeColor=none;fillColor=none;align=left;verticalAlign=middle;spacingLeft=4;spacingRight=4;overflow=hidden;rotatable=0;points=[[0,0.5],[1,0.5]];portConstraint=eastwest;whiteSpace=wrap;" vertex="1" parent="AP79YDHdzoa9NssZAHD8-36">
          <mxGeometry y="75" width="304" height="20" as="geometry" />
        </mxCell>
        <mxCell id="AP79YDHdzoa9NssZAHD8-46" value="" style="line;strokeWidth=1;fillColor=none;align=left;verticalAlign=middle;spacingTop=-1;spacingLeft=3;spacingRight=3;rotatable=0;labelPosition=right;points=[];portConstraint=eastwest;" vertex="1" parent="AP79YDHdzoa9NssZAHD8-36">
          <mxGeometry y="95" width="304" height="8" as="geometry" />
        </mxCell>
        <mxCell id="AP79YDHdzoa9NssZAHD8-47" value="operations" style="text;html=1;strokeColor=none;fillColor=none;align=center;verticalAlign=middle;spacingLeft=4;spacingRight=4;overflow=hidden;rotatable=0;points=[[0,0.5],[1,0.5]];portConstraint=eastwest;whiteSpace=wrap;" vertex="1" parent="AP79YDHdzoa9NssZAHD8-36">
          <mxGeometry y="103" width="304" height="20" as="geometry" />
        </mxCell>
        <mxCell id="AP79YDHdzoa9NssZAHD8-48" value="void add_register(std::string name, uint64_t address, uint32_t init, uint32_t mask, uint32_t ch, REGPERMISSION permission)" style="text;html=1;strokeColor=none;fillColor=none;align=left;verticalAlign=middle;spacingLeft=4;spacingRight=4;overflow=hidden;rotatable=0;points=[[0,0.5],[1,0.5]];portConstraint=eastwest;whiteSpace=wrap;" vertex="1" parent="AP79YDHdzoa9NssZAHD8-36">
          <mxGeometry y="123" width="304" height="69" as="geometry" />
        </mxCell>
        <mxCell id="AP79YDHdzoa9NssZAHD8-49" value="Register&amp;amp; operator[](std::string name)" style="text;html=1;strokeColor=none;fillColor=none;align=left;verticalAlign=middle;spacingLeft=4;spacingRight=4;overflow=hidden;rotatable=0;points=[[0,0.5],[1,0.5]];portConstraint=eastwest;whiteSpace=wrap;" vertex="1" parent="AP79YDHdzoa9NssZAHD8-36">
          <mxGeometry y="192" width="304" height="39" as="geometry" />
        </mxCell>
        <mxCell id="AP79YDHdzoa9NssZAHD8-50" value="Register&amp;amp; operator[](uint64_t address)" style="text;html=1;strokeColor=none;fillColor=none;align=left;verticalAlign=middle;spacingLeft=4;spacingRight=4;overflow=hidden;rotatable=0;points=[[0,0.5],[1,0.5]];portConstraint=eastwest;whiteSpace=wrap;" vertex="1" parent="AP79YDHdzoa9NssZAHD8-36">
          <mxGeometry y="231" width="304" height="20" as="geometry" />
        </mxCell>
        <mxCell id="AP79YDHdzoa9NssZAHD8-51" value="void update_register(uint64_t address, uint32_t value)" style="text;html=1;strokeColor=none;fillColor=none;align=left;verticalAlign=middle;spacingLeft=4;spacingRight=4;overflow=hidden;rotatable=0;points=[[0,0.5],[1,0.5]];portConstraint=eastwest;whiteSpace=wrap;" vertex="1" parent="AP79YDHdzoa9NssZAHD8-36">
          <mxGeometry y="251" width="304" height="20" as="geometry" />
        </mxCell>
        <mxCell id="AP79YDHdzoa9NssZAHD8-52" value="&amp;nbsp;void reset_regs()" style="text;html=1;strokeColor=none;fillColor=none;align=left;verticalAlign=middle;spacingLeft=4;spacingRight=4;overflow=hidden;rotatable=0;points=[[0,0.5],[1,0.5]];portConstraint=eastwest;whiteSpace=wrap;" vertex="1" parent="AP79YDHdzoa9NssZAHD8-36">
          <mxGeometry y="271" width="304" height="20" as="geometry" />
        </mxCell>
        <mxCell id="AP79YDHdzoa9NssZAHD8-53" value="void dump_registers()" style="text;html=1;strokeColor=none;fillColor=none;align=left;verticalAlign=middle;spacingLeft=4;spacingRight=4;overflow=hidden;rotatable=0;points=[[0,0.5],[1,0.5]];portConstraint=eastwest;whiteSpace=wrap;" vertex="1" parent="AP79YDHdzoa9NssZAHD8-36">
          <mxGeometry y="291" width="304" height="20" as="geometry" />
        </mxCell>
        <mxCell id="AP79YDHdzoa9NssZAHD8-57" value="Register&amp;amp; operator=(uint32_t new_value)" style="text;html=1;strokeColor=none;fillColor=none;align=left;verticalAlign=middle;spacingLeft=4;spacingRight=4;overflow=hidden;rotatable=0;points=[[0,0.5],[1,0.5]];portConstraint=eastwest;whiteSpace=wrap;" vertex="1" parent="AP79YDHdzoa9NssZAHD8-36">
          <mxGeometry y="311" width="304" height="31" as="geometry" />
        </mxCell>
        <mxCell id="AP79YDHdzoa9NssZAHD8-58" value="void set_register_callback(const std::string&amp;amp; name, Register::Callback cb)" style="text;html=1;strokeColor=none;fillColor=none;align=left;verticalAlign=middle;spacingLeft=4;spacingRight=4;overflow=hidden;rotatable=0;points=[[0,0.5],[1,0.5]];portConstraint=eastwest;whiteSpace=wrap;" vertex="1" parent="AP79YDHdzoa9NssZAHD8-36">
          <mxGeometry y="342" width="304" height="20" as="geometry" />
        </mxCell>
        <mxCell id="AP79YDHdzoa9NssZAHD8-55" value="" style="endArrow=none;html=1;rounded=0;align=center;verticalAlign=top;endFill=0;labelBackgroundColor=none;endSize=6;startArrow=diamond;startFill=0;entryX=-0.001;entryY=0.105;entryDx=0;entryDy=0;entryPerimeter=0;exitX=1.005;exitY=0.079;exitDx=0;exitDy=0;exitPerimeter=0;" edge="1" parent="1" source="AP79YDHdzoa9NssZAHD8-1" target="AP79YDHdzoa9NssZAHD8-36">
          <mxGeometry relative="1" as="geometry">
            <mxPoint x="168" y="160" as="sourcePoint" />
            <mxPoint x="358" y="236" as="targetPoint" />
          </mxGeometry>
        </mxCell>
      </root>
    </mxGraphModel>
  </diagram>
  <diagram id="0jZLkeag0GeGQvlHo3F2" name="Page-3">
    <mxGraphModel dx="2087" dy="1384" grid="0" gridSize="8" guides="1" tooltips="1" connect="1" arrows="1" fold="1" page="0" pageScale="1" pageWidth="850" pageHeight="1100" math="0" shadow="0">
      <root>
        <mxCell id="0" />
        <mxCell id="1" parent="0" />
        <mxCell id="nqeaO8DI-dvx_6qUTXoz-1" value="" style="rounded=0;whiteSpace=wrap;html=1;strokeWidth=2;" vertex="1" parent="1">
          <mxGeometry x="-30" y="26" width="404" height="334" as="geometry" />
        </mxCell>
        <mxCell id="nqeaO8DI-dvx_6qUTXoz-6" value="&lt;font style=&quot;font-size: 22px;&quot;&gt;Wrapper model&lt;/font&gt;" style="text;html=1;align=center;verticalAlign=middle;resizable=0;points=[];autosize=1;strokeColor=none;fillColor=none;" vertex="1" parent="1">
          <mxGeometry x="-35" y="30" width="168" height="38" as="geometry" />
        </mxCell>
        <mxCell id="nqeaO8DI-dvx_6qUTXoz-7" value="Register Interface" style="rounded=0;whiteSpace=wrap;html=1;strokeWidth=2;" vertex="1" parent="1">
          <mxGeometry x="160" y="208" width="120" height="60" as="geometry" />
        </mxCell>
        <mxCell id="nqeaO8DI-dvx_6qUTXoz-8" value="" style="rounded=0;whiteSpace=wrap;html=1;strokeWidth=2;" vertex="1" parent="1">
          <mxGeometry x="-30" y="472" width="406" height="234" as="geometry" />
        </mxCell>
        <mxCell id="nqeaO8DI-dvx_6qUTXoz-9" value="&lt;font style=&quot;font-size: 22px;&quot;&gt;RTL model&lt;/font&gt;" style="text;html=1;align=center;verticalAlign=middle;resizable=0;points=[];autosize=1;strokeColor=none;fillColor=none;" vertex="1" parent="1">
          <mxGeometry x="-23" y="662" width="124" height="38" as="geometry" />
        </mxCell>
        <mxCell id="nqeaO8DI-dvx_6qUTXoz-10" value="" style="endArrow=classic;html=1;rounded=0;entryX=0.25;entryY=1;entryDx=0;entryDy=0;exitX=0.544;exitY=0;exitDx=0;exitDy=0;exitPerimeter=0;strokeWidth=2;" edge="1" parent="1" source="nqeaO8DI-dvx_6qUTXoz-8" target="nqeaO8DI-dvx_6qUTXoz-7">
          <mxGeometry width="50" height="50" relative="1" as="geometry">
            <mxPoint x="193" y="470" as="sourcePoint" />
            <mxPoint x="279" y="389" as="targetPoint" />
          </mxGeometry>
        </mxCell>
        <mxCell id="nqeaO8DI-dvx_6qUTXoz-11" value="" style="endArrow=none;html=1;rounded=0;strokeWidth=2;" edge="1" parent="1">
          <mxGeometry width="50" height="50" relative="1" as="geometry">
            <mxPoint x="184" y="400" as="sourcePoint" />
            <mxPoint x="200" y="392" as="targetPoint" />
          </mxGeometry>
        </mxCell>
        <mxCell id="nqeaO8DI-dvx_6qUTXoz-12" value="" style="endArrow=none;html=1;rounded=0;strokeWidth=2;" edge="1" parent="1">
          <mxGeometry width="50" height="50" relative="1" as="geometry">
            <mxPoint x="184" y="408" as="sourcePoint" />
            <mxPoint x="200" y="400" as="targetPoint" />
          </mxGeometry>
        </mxCell>
        <mxCell id="nqeaO8DI-dvx_6qUTXoz-13" value="" style="endArrow=classic;html=1;rounded=0;entryX=0.25;entryY=1;entryDx=0;entryDy=0;exitX=0.544;exitY=0;exitDx=0;exitDy=0;exitPerimeter=0;strokeWidth=2;" edge="1" parent="1">
          <mxGeometry width="50" height="50" relative="1" as="geometry">
            <mxPoint x="215" y="472" as="sourcePoint" />
            <mxPoint x="214" y="268" as="targetPoint" />
          </mxGeometry>
        </mxCell>
        <mxCell id="nqeaO8DI-dvx_6qUTXoz-14" value="" style="endArrow=none;html=1;rounded=0;strokeWidth=2;" edge="1" parent="1">
          <mxGeometry width="50" height="50" relative="1" as="geometry">
            <mxPoint x="208" y="400" as="sourcePoint" />
            <mxPoint x="224" y="392" as="targetPoint" />
          </mxGeometry>
        </mxCell>
        <mxCell id="nqeaO8DI-dvx_6qUTXoz-15" value="" style="endArrow=none;html=1;rounded=0;strokeWidth=2;" edge="1" parent="1">
          <mxGeometry width="50" height="50" relative="1" as="geometry">
            <mxPoint x="208" y="408" as="sourcePoint" />
            <mxPoint x="224" y="400" as="targetPoint" />
          </mxGeometry>
        </mxCell>
        <mxCell id="nqeaO8DI-dvx_6qUTXoz-16" value="" style="endArrow=classic;html=1;rounded=0;entryX=0.25;entryY=1;entryDx=0;entryDy=0;exitX=0.544;exitY=0;exitDx=0;exitDy=0;exitPerimeter=0;strokeWidth=2;" edge="1" parent="1">
          <mxGeometry width="50" height="50" relative="1" as="geometry">
            <mxPoint x="239" y="472" as="sourcePoint" />
            <mxPoint x="238" y="268" as="targetPoint" />
          </mxGeometry>
        </mxCell>
        <mxCell id="nqeaO8DI-dvx_6qUTXoz-17" value="" style="endArrow=none;html=1;rounded=0;strokeWidth=2;" edge="1" parent="1">
          <mxGeometry width="50" height="50" relative="1" as="geometry">
            <mxPoint x="232" y="400" as="sourcePoint" />
            <mxPoint x="248" y="392" as="targetPoint" />
          </mxGeometry>
        </mxCell>
        <mxCell id="nqeaO8DI-dvx_6qUTXoz-18" value="" style="endArrow=none;html=1;rounded=0;strokeWidth=2;" edge="1" parent="1">
          <mxGeometry width="50" height="50" relative="1" as="geometry">
            <mxPoint x="232" y="408" as="sourcePoint" />
            <mxPoint x="248" y="400" as="targetPoint" />
          </mxGeometry>
        </mxCell>
        <mxCell id="nqeaO8DI-dvx_6qUTXoz-19" value="" style="endArrow=classic;html=1;rounded=0;entryX=0.25;entryY=1;entryDx=0;entryDy=0;exitX=0.544;exitY=0;exitDx=0;exitDy=0;exitPerimeter=0;strokeWidth=2;" edge="1" parent="1">
          <mxGeometry width="50" height="50" relative="1" as="geometry">
            <mxPoint x="263" y="472" as="sourcePoint" />
            <mxPoint x="262" y="268" as="targetPoint" />
          </mxGeometry>
        </mxCell>
        <mxCell id="nqeaO8DI-dvx_6qUTXoz-20" value="" style="endArrow=none;html=1;rounded=0;strokeWidth=2;" edge="1" parent="1">
          <mxGeometry width="50" height="50" relative="1" as="geometry">
            <mxPoint x="256" y="400" as="sourcePoint" />
            <mxPoint x="272" y="392" as="targetPoint" />
          </mxGeometry>
        </mxCell>
        <mxCell id="nqeaO8DI-dvx_6qUTXoz-21" value="" style="endArrow=none;html=1;rounded=0;strokeWidth=2;" edge="1" parent="1">
          <mxGeometry width="50" height="50" relative="1" as="geometry">
            <mxPoint x="256" y="408" as="sourcePoint" />
            <mxPoint x="272" y="400" as="targetPoint" />
          </mxGeometry>
        </mxCell>
        <mxCell id="nqeaO8DI-dvx_6qUTXoz-22" value="" style="shape=flexArrow;endArrow=classic;startArrow=classic;html=1;rounded=0;exitX=0.5;exitY=0;exitDx=0;exitDy=0;entryX=0.619;entryY=0.004;entryDx=0;entryDy=0;entryPerimeter=0;strokeWidth=2;" edge="1" parent="1" source="nqeaO8DI-dvx_6qUTXoz-7" target="nqeaO8DI-dvx_6qUTXoz-1">
          <mxGeometry width="100" height="100" relative="1" as="geometry">
            <mxPoint x="200" y="196" as="sourcePoint" />
            <mxPoint x="300" y="96" as="targetPoint" />
          </mxGeometry>
        </mxCell>
        <mxCell id="nqeaO8DI-dvx_6qUTXoz-23" value="" style="whiteSpace=wrap;html=1;aspect=fixed;strokeWidth=2;" vertex="1" parent="1">
          <mxGeometry x="200" y="-16" width="40" height="40" as="geometry" />
        </mxCell>
        <mxCell id="nqeaO8DI-dvx_6qUTXoz-24" value="" style="endArrow=none;html=1;rounded=0;entryX=0.5;entryY=0;entryDx=0;entryDy=0;exitX=0;exitY=1;exitDx=0;exitDy=0;strokeWidth=2;" edge="1" parent="1" source="nqeaO8DI-dvx_6qUTXoz-23" target="nqeaO8DI-dvx_6qUTXoz-23">
          <mxGeometry width="50" height="50" relative="1" as="geometry">
            <mxPoint x="152" y="-54" as="sourcePoint" />
            <mxPoint x="202" y="-104" as="targetPoint" />
          </mxGeometry>
        </mxCell>
        <mxCell id="nqeaO8DI-dvx_6qUTXoz-25" value="" style="endArrow=none;html=1;rounded=0;entryX=0.5;entryY=0;entryDx=0;entryDy=0;exitX=1;exitY=1;exitDx=0;exitDy=0;strokeWidth=2;" edge="1" parent="1" source="nqeaO8DI-dvx_6qUTXoz-23" target="nqeaO8DI-dvx_6qUTXoz-23">
          <mxGeometry width="50" height="50" relative="1" as="geometry">
            <mxPoint x="240" y="-48" as="sourcePoint" />
            <mxPoint x="306" y="-72" as="targetPoint" />
          </mxGeometry>
        </mxCell>
        <mxCell id="nqeaO8DI-dvx_6qUTXoz-26" value="&lt;span style=&quot;font-size: 22px;&quot;&gt;Target socket&lt;/span&gt;" style="text;html=1;align=center;verticalAlign=middle;resizable=0;points=[];autosize=1;strokeColor=none;fillColor=none;" vertex="1" parent="1">
          <mxGeometry x="240" y="-16" width="152" height="48" as="geometry" />
        </mxCell>
        <mxCell id="nqeaO8DI-dvx_6qUTXoz-28" value="Forwarding signal" style="rounded=0;whiteSpace=wrap;html=1;strokeWidth=2;" vertex="1" parent="1">
          <mxGeometry y="168" width="120" height="100" as="geometry" />
        </mxCell>
        <mxCell id="nqeaO8DI-dvx_6qUTXoz-29" value="" style="endArrow=classic;html=1;rounded=0;entryX=0.25;entryY=1;entryDx=0;entryDy=0;strokeWidth=2;" edge="1" parent="1" target="nqeaO8DI-dvx_6qUTXoz-28">
          <mxGeometry width="50" height="50" relative="1" as="geometry">
            <mxPoint x="32" y="472" as="sourcePoint" />
            <mxPoint x="74" y="400" as="targetPoint" />
          </mxGeometry>
        </mxCell>
        <mxCell id="nqeaO8DI-dvx_6qUTXoz-30" value="" style="endArrow=classic;html=1;rounded=0;exitX=0.205;exitY=-0.004;exitDx=0;exitDy=0;exitPerimeter=0;entryX=0.431;entryY=1.02;entryDx=0;entryDy=0;entryPerimeter=0;strokeWidth=2;" edge="1" parent="1" source="nqeaO8DI-dvx_6qUTXoz-8" target="nqeaO8DI-dvx_6qUTXoz-28">
          <mxGeometry width="50" height="50" relative="1" as="geometry">
            <mxPoint x="39" y="484" as="sourcePoint" />
            <mxPoint x="38" y="276" as="targetPoint" />
          </mxGeometry>
        </mxCell>
        <mxCell id="nqeaO8DI-dvx_6qUTXoz-31" value="" style="endArrow=none;html=1;rounded=0;exitX=0.205;exitY=-0.004;exitDx=0;exitDy=0;exitPerimeter=0;entryX=0.431;entryY=1.02;entryDx=0;entryDy=0;entryPerimeter=0;startArrow=classic;startFill=1;endFill=0;strokeWidth=2;" edge="1" parent="1">
          <mxGeometry width="50" height="50" relative="1" as="geometry">
            <mxPoint x="73" y="470" as="sourcePoint" />
            <mxPoint x="72" y="268" as="targetPoint" />
          </mxGeometry>
        </mxCell>
        <mxCell id="nqeaO8DI-dvx_6qUTXoz-32" value="" style="endArrow=none;html=1;rounded=0;exitX=0.205;exitY=-0.004;exitDx=0;exitDy=0;exitPerimeter=0;entryX=0.431;entryY=1.02;entryDx=0;entryDy=0;entryPerimeter=0;startArrow=classic;startFill=1;endFill=0;strokeWidth=2;" edge="1" parent="1">
          <mxGeometry width="50" height="50" relative="1" as="geometry">
            <mxPoint x="97" y="470" as="sourcePoint" />
            <mxPoint x="96" y="268" as="targetPoint" />
          </mxGeometry>
        </mxCell>
        <mxCell id="nqeaO8DI-dvx_6qUTXoz-33" value="" style="endArrow=none;html=1;rounded=0;exitX=0;exitY=0.25;exitDx=0;exitDy=0;startArrow=classic;startFill=1;endFill=0;strokeWidth=2;" edge="1" parent="1" source="nqeaO8DI-dvx_6qUTXoz-28">
          <mxGeometry width="50" height="50" relative="1" as="geometry">
            <mxPoint x="-120" y="226" as="sourcePoint" />
            <mxPoint x="-80" y="192" as="targetPoint" />
          </mxGeometry>
        </mxCell>
        <mxCell id="nqeaO8DI-dvx_6qUTXoz-34" value="" style="endArrow=none;html=1;rounded=0;exitX=0;exitY=0.25;exitDx=0;exitDy=0;startArrow=classic;startFill=1;endFill=0;strokeWidth=2;" edge="1" parent="1">
          <mxGeometry width="50" height="50" relative="1" as="geometry">
            <mxPoint y="209" as="sourcePoint" />
            <mxPoint x="-80" y="208" as="targetPoint" />
          </mxGeometry>
        </mxCell>
        <mxCell id="nqeaO8DI-dvx_6qUTXoz-35" value="" style="endArrow=classic;html=1;rounded=0;exitX=0;exitY=0.25;exitDx=0;exitDy=0;startArrow=none;startFill=0;strokeWidth=2;" edge="1" parent="1">
          <mxGeometry width="50" height="50" relative="1" as="geometry">
            <mxPoint y="225" as="sourcePoint" />
            <mxPoint x="-80" y="224" as="targetPoint" />
          </mxGeometry>
        </mxCell>
        <mxCell id="nqeaO8DI-dvx_6qUTXoz-36" value="" style="endArrow=classic;html=1;rounded=0;exitX=0;exitY=0.25;exitDx=0;exitDy=0;startArrow=none;startFill=0;strokeWidth=2;" edge="1" parent="1">
          <mxGeometry width="50" height="50" relative="1" as="geometry">
            <mxPoint y="238.5" as="sourcePoint" />
            <mxPoint x="-80" y="237.5" as="targetPoint" />
          </mxGeometry>
        </mxCell>
        <mxCell id="nqeaO8DI-dvx_6qUTXoz-44" style="edgeStyle=orthogonalEdgeStyle;rounded=0;orthogonalLoop=1;jettySize=auto;html=1;entryX=1;entryY=0.5;entryDx=0;entryDy=0;strokeWidth=2;" edge="1" parent="1" source="nqeaO8DI-dvx_6qUTXoz-37" target="nqeaO8DI-dvx_6qUTXoz-39">
          <mxGeometry relative="1" as="geometry" />
        </mxCell>
        <mxCell id="nqeaO8DI-dvx_6qUTXoz-46" style="edgeStyle=orthogonalEdgeStyle;rounded=0;orthogonalLoop=1;jettySize=auto;html=1;entryX=1;entryY=0.5;entryDx=0;entryDy=0;strokeWidth=2;" edge="1" parent="1" source="nqeaO8DI-dvx_6qUTXoz-37" target="nqeaO8DI-dvx_6qUTXoz-45">
          <mxGeometry relative="1" as="geometry">
            <Array as="points">
              <mxPoint x="536" y="622" />
            </Array>
          </mxGeometry>
        </mxCell>
        <mxCell id="nqeaO8DI-dvx_6qUTXoz-37" value="&lt;font style=&quot;font-size: 16px;&quot;&gt;System clock&lt;/font&gt;" style="rounded=0;whiteSpace=wrap;html=1;strokeWidth=2;" vertex="1" parent="1">
          <mxGeometry x="472" y="79" width="120" height="60" as="geometry" />
        </mxCell>
        <mxCell id="nqeaO8DI-dvx_6qUTXoz-42" style="edgeStyle=orthogonalEdgeStyle;rounded=0;orthogonalLoop=1;jettySize=auto;html=1;dashed=1;startArrow=classic;startFill=1;" edge="1" parent="1" source="nqeaO8DI-dvx_6qUTXoz-39" target="nqeaO8DI-dvx_6qUTXoz-28">
          <mxGeometry relative="1" as="geometry" />
        </mxCell>
        <mxCell id="nqeaO8DI-dvx_6qUTXoz-43" style="edgeStyle=orthogonalEdgeStyle;rounded=0;orthogonalLoop=1;jettySize=auto;html=1;entryX=1;entryY=0.5;entryDx=0;entryDy=0;startArrow=classic;startFill=1;dashed=1;" edge="1" parent="1" source="nqeaO8DI-dvx_6qUTXoz-39" target="nqeaO8DI-dvx_6qUTXoz-7">
          <mxGeometry relative="1" as="geometry" />
        </mxCell>
        <mxCell id="nqeaO8DI-dvx_6qUTXoz-39" value="Clock synchronization" style="rounded=0;whiteSpace=wrap;html=1;strokeWidth=2;" vertex="1" parent="1">
          <mxGeometry x="254" y="79" width="120" height="60" as="geometry" />
        </mxCell>
        <mxCell id="nqeaO8DI-dvx_6qUTXoz-48" style="edgeStyle=orthogonalEdgeStyle;rounded=0;orthogonalLoop=1;jettySize=auto;html=1;entryX=0;entryY=0.5;entryDx=0;entryDy=0;dashed=1;" edge="1" parent="1" source="nqeaO8DI-dvx_6qUTXoz-40" target="nqeaO8DI-dvx_6qUTXoz-45">
          <mxGeometry relative="1" as="geometry">
            <Array as="points">
              <mxPoint x="72" y="622" />
            </Array>
          </mxGeometry>
        </mxCell>
        <mxCell id="nqeaO8DI-dvx_6qUTXoz-40" value="In/out ports" style="rounded=0;whiteSpace=wrap;html=1;" vertex="1" parent="1">
          <mxGeometry x="8" y="472" width="120" height="60" as="geometry" />
        </mxCell>
        <mxCell id="nqeaO8DI-dvx_6qUTXoz-47" value="" style="edgeStyle=orthogonalEdgeStyle;rounded=0;orthogonalLoop=1;jettySize=auto;html=1;dashed=1;" edge="1" parent="1" source="nqeaO8DI-dvx_6qUTXoz-41" target="nqeaO8DI-dvx_6qUTXoz-45">
          <mxGeometry relative="1" as="geometry" />
        </mxCell>
        <mxCell id="nqeaO8DI-dvx_6qUTXoz-41" value="Reg ports" style="rounded=0;whiteSpace=wrap;html=1;" vertex="1" parent="1">
          <mxGeometry x="168" y="472" width="120" height="60" as="geometry" />
        </mxCell>
        <mxCell id="nqeaO8DI-dvx_6qUTXoz-45" value="Clock handling" style="rounded=0;whiteSpace=wrap;html=1;" vertex="1" parent="1">
          <mxGeometry x="168" y="592" width="120" height="60" as="geometry" />
        </mxCell>
      </root>
    </mxGraphModel>
  </diagram>
</mxfile>
